<?xml version="1.0" encoding="UTF-8"?><svg xmlns="http://www.w3.org/2000/svg" viewBox="0 0 111.3 100.8"><defs><style>.d{fill:#0097d7;}</style></defs><g id="a"/><g id="b"><g id="c"><g><path class="d" d="M89,64.1L30,5.1C26.6,1.8,22.2,0,17.5,0,7.8,0,0,7.8,0,17.5v24.1c3.1-8.5,15.1-11.9,22.2-4.9l59,59c3.3,3.3,7.8,5.1,12.4,5.1,9.7,0,17.5-7.8,17.5-17.5v-24.1c-3,8.5-15,11.9-22.1,4.9Z"/><path class="d" d="M97.4,0h0c-7.7,0-13.9,6.2-13.9,13.8V49.2l8.2,8c7.3,7.1,19.6,2,19.6-8.2V13.8c-.1-7.6-6.3-13.8-13.9-13.8Z"/><path class="d" d="M0,51.9v35.1c0,7.6,6.2,13.8,13.8,13.8h.1c7.6,0,13.8-6.2,13.8-13.8V51.6l-8.2-8c-7.2-7.1-19.5-1.9-19.5,8.3Z"/></g></g></g></svg>